<?xml version="1.0" encoding="UTF-8" standalone="no"?>
<!-- Created with Inkscape (http://www.inkscape.org/) -->

<svg
   width="512"
   height="512"
   viewBox="0 0 512 512"
   version="1.1"
   id="svg1"
   xmlns="http://www.w3.org/2000/svg"
   xmlns:svg="http://www.w3.org/2000/svg">
  <defs
     id="defs1" />
  <g
     id="layer1">
    <circle
       style="fill:#272727;fill-opacity:1;stroke-width:0"
       id="path1"
       cx="256"
       cy="256"
       r="256" />
    <path
       d="m 338.66662,255.99999 c 0,22.93332 -8,43.19997 -23.99999,59.7333 -15.99999,17.06665 -35.73331,25.59998 -58.66663,25.59998 -23.46665,0 -43.19997,-8.53333 -59.19996,-25.59998 -15.99999,-16.53333 -23.46665,-36.79998 -23.46665,-59.7333 0,-22.39999 7.46666,-42.66664 23.46665,-59.7333 15.99999,-17.06665 35.73331,-25.59998 59.19996,-25.59998 22.93332,0 42.66664,8.53333 58.66663,25.59998 15.99999,17.06666 23.99999,37.33331 23.99999,59.7333 z m 37.33331,117.33326 V 138.66673 h -37.33331 v 40.53331 c -2.13333,-3.2 -4.8,-5.86667 -6.93333,-8.53333 -22.39999,-24.53332 -49.59997,-37.33331 -81.59995,-37.33331 -32.53331,0 -59.7333,12.79999 -82.13328,37.33331 -21.33332,24.53332 -31.99998,52.79997 -31.99998,85.33328 0,33.06665 10.66666,61.3333 31.99998,85.33328 22.39998,25.06665 49.59997,37.33331 82.13328,37.33331 31.99998,0 59.19996,-12.26666 81.59995,-37.33331 2.13333,-2.13333 4.8,-4.8 6.93333,-7.99999 v 39.99997 z"
       id="text1"
       style="font-size:533.333px;font-family:'Glacial Indifference';-inkscape-font-specification:'Glacial Indifference';fill:#faedcd;stroke-width:0"
       aria-label="a" />
  </g>
</svg>
